<?xml version="1.0" encoding="UTF-8"?>
<svg version="1.1" viewBox="0 0 312.99 271.94" xmlns="http://www.w3.org/2000/svg">
 <g transform="translate(-215.23 -163.53)">
  <g transform="matrix(2.2763 0 0 2.2763 -852.82 -984.59)">
   <path d="m508.63 516.27c-3.0651-0.30279-6.044 1e-3 -8.8338 0.81826-2.7898 0.81715-5.4006 2.1648-7.6716 3.9325-2.271 1.7677-5.478 3.6656-7.3056 4.795 0.23376 2.5764-0.9901 7.1514-1.4931 10.312-1.0972 6.8944 0.69649 13.717 4.4759 19.124 7.7003 0.67289 16.122-4.398 20.867-13.369 4.703-8.8922 4.4268-19.035-0.0388-25.613zm-7.1932 4.2753c0.92564 0.1084 1.7025 0.53352 2.1084 1.2613 0.81174 1.4556-0.15178 3.5502-2.165 4.6749-2.0132 1.1247-4.3032 0.8565-5.1149-0.59908-0.81174-1.4556 0.15179-3.5502 2.165-4.6749 1.0066-0.56236 2.0809-0.77064 3.0066-0.66223zm-10.51 5.9588c1.0896 0.25536 2.2816 1.0696 3.1377 2.2339 1.3698 1.8629 1.3895 3.9629 0.0527 4.6912-1.3368 0.72833-3.5413-0.20276-4.9111-2.0656-1.3698-1.8629-1.3896-3.9629-0.0527-4.6912 0.50131-0.27313 1.1197-0.32151 1.7734-0.16828z"/>
   <path d="m511.32 516.87c4.4635 6.6065 4.5919 17.085-0.34565 26.379-5.0416 9.4901-13.84 14.868-21.653 14.068 23.831 19.372 44.95 34.121 75.724 56.487l-55.327-48.033c5.9905-0.69877 11.458-3.7996 15.297-8.5284l63.213 34.652-59.354-41.31c0.60176-1.5479 1.0565-3.1756 1.3565-4.885 0.8628-4.9167 0.26257-9.7712-1.4531-14.059l66.628 29.776c-30.616-17.042-55.492-30.808-84.037-44.517-0.0188-3e-3 -0.029-0.0274-0.0478-0.0306z"/>
  </g>
 </g>
</svg>
